<?xml version="1.0" encoding="UTF-8" standalone="no"?>
<!DOCTYPE svg PUBLIC "-//W3C//DTD SVG 1.1//EN" "http://www.w3.org/Graphics/SVG/1.1/DTD/svg11.dtd">
<svg width="100%" height="100%" viewBox="0 0 512 512" version="1.1" xmlns="http://www.w3.org/2000/svg" xmlns:xlink="http://www.w3.org/1999/xlink" xml:space="preserve" xmlns:serif="http://www.serif.com/" style="fill-rule:evenodd;clip-rule:evenodd;stroke-linejoin:round;stroke-miterlimit:2;">
    <g transform="matrix(1,0,0,1,3.93187,45.458)">
        <g transform="matrix(1.96789,0,0,1.96789,-259.621,-424.124)">
            <path d="M302.793,229.855C295.064,238.55 299.922,246.736 281.545,260.827C263.167,274.918 248.444,277.125 247.547,279.127C246.65,281.128 284.058,316.203 284.217,301.587C284.377,286.842 290.203,282.602 296.386,278.414C302.569,274.225 331.562,271.77 334.263,267.345C341.549,255.409 310.522,221.159 302.793,229.855" style="fill:url(#_Linear1);"/>
            <path d="M302.419,229.522C303.775,227.998 305.774,227.634 308.16,228.226C311.487,229.052 315.611,231.769 319.647,235.489C325.643,241.018 331.46,248.751 334.204,255.611C336.087,260.319 336.505,264.631 334.689,267.605C334.329,268.196 333.564,268.775 332.456,269.309C330.939,270.042 328.751,270.726 326.182,271.38C320.275,272.883 312.328,274.235 305.98,275.709C301.827,276.673 298.366,277.676 296.666,278.828C293.628,280.886 290.671,282.949 288.461,286.316C286.251,289.683 284.795,294.349 284.717,301.592C284.701,303.075 284.314,304.094 283.68,304.737C283.065,305.361 282.206,305.656 281.141,305.639C279.72,305.617 277.896,305.025 275.835,304.008C266.988,299.643 253.538,287.441 248.837,282.012C247.977,281.019 247.404,280.238 247.179,279.761C246.998,279.379 247.016,279.087 247.09,278.922C247.19,278.699 247.399,278.46 247.738,278.225C248.123,277.958 248.705,277.671 249.468,277.347C254.267,275.314 266.59,271.664 281.24,260.431C292.147,252.068 294.785,245.812 296.797,240.284C298.175,236.5 299.279,233.055 302.419,229.522M248.052,279.251C248.078,279.314 248.125,279.421 248.176,279.509C248.431,279.949 248.919,280.579 249.593,281.358C254.241,286.725 267.531,298.796 276.278,303.111C278.176,304.048 279.847,304.619 281.156,304.639C281.911,304.651 282.532,304.477 282.968,304.035C283.459,303.537 283.704,302.73 283.717,301.581C283.798,294.08 285.336,289.254 287.625,285.767C289.913,282.281 292.96,280.13 296.105,278C297.435,277.099 299.791,276.266 302.715,275.487C309.38,273.711 319.046,272.164 325.935,270.411C328.427,269.777 330.55,269.119 332.022,268.409C332.908,267.982 333.548,267.556 333.836,267.084C335.517,264.33 335.019,260.342 333.276,255.983C330.58,249.244 324.859,241.654 318.969,236.225C315.08,232.64 311.125,229.992 307.919,229.197C305.951,228.709 304.285,228.929 303.167,230.187C300.123,233.611 299.072,236.959 297.737,240.626C295.68,246.276 292.995,252.678 281.849,261.224C268.93,271.13 257.81,275.189 251.992,277.421C250.529,277.983 249.408,278.424 248.689,278.816C248.388,278.98 248.162,279.109 248.052,279.251" style="fill:url(#_Linear2);"/>
        </g>
        <g transform="matrix(0.554071,0,0,0.554071,323.237,10.7586)">
            <g>
                <g>
                    <circle cx="90" cy="90" r="90"/>
                    <path d="M149.508,157.52L69.142,54L54,54L54,125.97L66.114,125.97L66.114,69.384L139.999,164.845C143.333,162.614 146.509,160.165 149.508,157.52Z" style="fill:url(#_Linear3);fill-rule:nonzero;"/>
                    <rect x="115" y="54" width="12" height="72" style="fill:url(#_Linear4);"/>
                </g>
            </g>
        </g>
        <g transform="matrix(0.305438,0,0,0.305438,252.068,263.715)">
            <g transform="matrix(1,0,0,1,-802.667,-480)">
                <g transform="matrix(2.66667,0,0,2.66667,0,0)">
                    <path d="M481.36,180C481.36,196.572 474.638,211.572 463.757,222.42C452.875,233.28 437.845,240 421.24,240C404.635,240 389.605,246.708 378.735,257.568C367.853,268.428 361.12,283.428 361.12,300C361.12,316.572 354.398,331.572 343.517,342.42C332.635,353.28 317.605,360 301,360C284.395,360 269.365,353.28 258.495,342.42C247.613,331.572 240.88,316.572 240.88,300C240.88,283.428 247.613,268.428 258.495,257.568C269.365,246.708 284.395,240 301,240C317.605,240 332.635,233.28 343.517,222.42C354.398,211.572 361.12,196.572 361.12,180C361.12,146.856 334.21,120 301,120C284.395,120 269.365,113.28 258.495,102.42C247.613,91.572 240.88,76.572 240.88,60C240.88,43.428 247.613,28.428 258.495,17.568C269.365,6.708 284.395,0 301,0C334.21,0 361.12,26.856 361.12,60C361.12,76.572 367.853,91.572 378.735,102.42C389.605,113.28 404.635,120 421.24,120C454.45,120 481.36,146.856 481.36,180Z" style="fill:rgb(244,66,80);fill-rule:nonzero;"/>
                </g>
                <g transform="matrix(2.66667,0,0,2.66667,0,0)">
                    <path d="M240.88,180C240.88,146.862 213.963,120 180.76,120C147.557,120 120.64,146.862 120.64,180C120.64,213.137 147.557,240 180.76,240C213.963,240 240.88,213.137 240.88,180Z" style="fill:white;fill-rule:nonzero;"/>
                </g>
                <g transform="matrix(2.66667,0,0,2.66667,0,0)">
                    <path d="M120.64,300C120.64,266.863 93.723,240 60.52,240C27.317,240 0.4,266.863 0.4,300C0.4,333.138 27.317,360 60.52,360C93.723,360 120.64,333.138 120.64,300Z" style="fill:white;fill-rule:nonzero;"/>
                </g>
                <g transform="matrix(2.66667,0,0,2.66667,0,0)">
                    <path d="M601.6,300C601.6,266.863 574.683,240 541.48,240C508.277,240 481.36,266.863 481.36,300C481.36,333.138 508.277,360 541.48,360C574.683,360 601.6,333.138 601.6,300Z" style="fill:white;fill-rule:nonzero;"/>
                </g>
            </g>
        </g>
    </g>
    <defs>
        <linearGradient id="_Linear1" x1="0" y1="0" x2="1" y2="0" gradientUnits="userSpaceOnUse" gradientTransform="matrix(40.4483,-29.5254,29.5254,40.4483,267.903,283.085)"><stop offset="0" style="stop-color:rgb(244,66,80);stop-opacity:1"/><stop offset="0.32" style="stop-color:rgb(220,60,72);stop-opacity:1"/><stop offset="0.74" style="stop-color:rgb(23,6,8);stop-opacity:1"/><stop offset="1" style="stop-color:black;stop-opacity:1"/></linearGradient>
        <linearGradient id="_Linear2" x1="0" y1="0" x2="1" y2="0" gradientUnits="userSpaceOnUse" gradientTransform="matrix(40.4483,-29.5254,29.5254,40.4483,267.903,283.085)"><stop offset="0" style="stop-color:rgb(244,66,80);stop-opacity:1"/><stop offset="0.32" style="stop-color:rgb(220,60,72);stop-opacity:1"/><stop offset="0.74" style="stop-color:rgb(23,6,8);stop-opacity:1"/><stop offset="1" style="stop-color:black;stop-opacity:1"/></linearGradient>
        <linearGradient id="_Linear3" x1="0" y1="0" x2="1" y2="0" gradientUnits="userSpaceOnUse" gradientTransform="matrix(35.5,44,-44,35.5,109,116.5)"><stop offset="0" style="stop-color:white;stop-opacity:1"/><stop offset="1" style="stop-color:white;stop-opacity:0"/></linearGradient>
        <linearGradient id="_Linear4" x1="0" y1="0" x2="1" y2="0" gradientUnits="userSpaceOnUse" gradientTransform="matrix(-0.201,52.875,-52.875,-0.201,121,54)"><stop offset="0" style="stop-color:white;stop-opacity:1"/><stop offset="1" style="stop-color:white;stop-opacity:0"/></linearGradient>
    </defs>
</svg>
