<?xml version="1.0" encoding="UTF-8" standalone="no"?>
<!DOCTYPE svg PUBLIC "-//W3C//DTD SVG 1.1//EN" "http://www.w3.org/Graphics/SVG/1.1/DTD/svg11.dtd">
<svg width="100%" height="100%" viewBox="0 0 800 400" version="1.1" xmlns="http://www.w3.org/2000/svg" xmlns:xlink="http://www.w3.org/1999/xlink" xml:space="preserve" xmlns:serif="http://www.serif.com/" style="fill-rule:evenodd;clip-rule:evenodd;stroke-linejoin:round;stroke-miterlimit:2;">
    <g transform="matrix(1.5625,0,0,1.5625,0,0)">
        <g transform="matrix(1.07589,0,0,1.07589,-15.1966,-94.3181)">
            <g transform="matrix(-0.994455,-0.388242,0.387283,-0.992,217.527,281.517)">
                <path d="M59.946,134.705C54.822,136.337 50.801,140.351 49.153,145.48C44.916,158.684 32.55,168.237 17.976,168.237C-0.119,168.237 -14.809,153.51 -14.809,135.371C-14.809,117.231 -0.119,102.505 17.976,102.505C23.656,102.505 29.001,103.956 33.662,106.509C40.553,110.27 48.677,111.05 56.156,108.669C56.962,108.424 57.773,108.166 58.582,107.909C67.035,105.217 74.189,99.475 78.658,91.796C84.326,82.059 94.866,75.528 106.915,75.528C125.009,75.528 139.7,90.255 139.7,108.395C139.7,126.534 125.009,141.261 106.915,141.261C100.373,141.261 94.277,139.336 89.158,136.021C82.208,131.522 73.616,130.369 65.73,132.88C63.755,133.493 61.783,134.121 59.946,134.705Z" style="fill:url(#_Linear1);"/>
            </g>
            <g transform="matrix(0.219286,0,0,0.219296,252.041,210.547)">
                <g transform="matrix(1,0,0,1,-802.667,-480)">
                    <g transform="matrix(2.66667,0,0,2.66667,0,0)">
                        <path d="M481.36,180C481.36,196.572 474.638,211.572 463.757,222.42C452.875,233.28 437.845,240 421.24,240C404.635,240 389.605,246.708 378.735,257.568C367.853,268.428 361.12,283.428 361.12,300C361.12,316.572 354.398,331.572 343.517,342.42C332.635,353.28 317.605,360 301,360C284.395,360 269.365,353.28 258.495,342.42C247.613,331.572 240.88,316.572 240.88,300C240.88,283.428 247.613,268.428 258.495,257.568C269.365,246.708 284.395,240 301,240C317.605,240 332.635,233.28 343.517,222.42C354.398,211.572 361.12,196.572 361.12,180C361.12,146.856 334.21,120 301,120C284.395,120 269.365,113.28 258.495,102.42C247.613,91.572 240.88,76.572 240.88,60C240.88,43.428 247.613,28.428 258.495,17.568C269.365,6.708 284.395,0 301,0C334.21,0 361.12,26.856 361.12,60C361.12,76.572 367.853,91.572 378.735,102.42C389.605,113.28 404.635,120 421.24,120C454.45,120 481.36,146.856 481.36,180Z" style="fill:rgb(244,66,80);fill-rule:nonzero;"/>
                    </g>
                    <g transform="matrix(2.66667,0,0,2.66667,0,0)">
                        <path d="M240.88,180C240.88,146.862 213.963,120 180.76,120C147.557,120 120.64,146.862 120.64,180C120.64,213.137 147.557,240 180.76,240C213.963,240 240.88,213.137 240.88,180Z" style="fill:white;fill-rule:nonzero;"/>
                    </g>
                    <g transform="matrix(2.66667,0,0,2.66667,0,0)">
                        <path d="M120.64,300C120.64,266.863 93.723,240 60.52,240C27.317,240 0.4,266.863 0.4,300C0.4,333.138 27.317,360 60.52,360C93.723,360 120.64,333.138 120.64,300Z" style="fill:white;fill-rule:nonzero;"/>
                    </g>
                    <g transform="matrix(2.66667,0,0,2.66667,0,0)">
                        <path d="M601.6,300C601.6,266.863 574.683,240 541.48,240C508.277,240 481.36,266.863 481.36,300C481.36,333.138 508.277,360 541.48,360C574.683,360 601.6,333.138 601.6,300Z" style="fill:white;fill-rule:nonzero;"/>
                    </g>
                </g>
            </g>
            <g transform="matrix(0.389656,0,0,0.389656,116.897,97.6945)">
                <g>
                    <g>
                        <g transform="matrix(0.998032,0,0,0.998032,0,-5.68434e-14)">
                            <circle cx="90" cy="90" r="90"/>
                        </g>
                        <path d="M149.508,157.52L69.142,54L54,54L54,125.97L66.114,125.97L66.114,69.384L139.999,164.845C143.333,162.614 146.509,160.165 149.508,157.52Z" style="fill:url(#_Linear2);fill-rule:nonzero;"/>
                        <rect x="115" y="54" width="12" height="72" style="fill:url(#_Linear3);"/>
                    </g>
                </g>
            </g>
        </g>
    </g>
    <defs>
        <linearGradient id="_Linear1" x1="0" y1="0" x2="1" y2="0" gradientUnits="userSpaceOnUse" gradientTransform="matrix(26.6644,-8.87383,8.85192,26.7304,49.619,123.937)"><stop offset="0" style="stop-color:rgb(244,66,80);stop-opacity:1"/><stop offset="1" style="stop-color:black;stop-opacity:1"/></linearGradient>
        <linearGradient id="_Linear2" x1="0" y1="0" x2="1" y2="0" gradientUnits="userSpaceOnUse" gradientTransform="matrix(35.5,44,-44,35.5,109,116.5)"><stop offset="0" style="stop-color:white;stop-opacity:1"/><stop offset="1" style="stop-color:white;stop-opacity:0"/></linearGradient>
        <linearGradient id="_Linear3" x1="0" y1="0" x2="1" y2="0" gradientUnits="userSpaceOnUse" gradientTransform="matrix(-0.201,52.875,-52.875,-0.201,121,54)"><stop offset="0" style="stop-color:white;stop-opacity:1"/><stop offset="1" style="stop-color:white;stop-opacity:0"/></linearGradient>
    </defs>
</svg>
